<mxfile host="app.diagrams.net" agent="Mozilla/5.0 (Macintosh; Intel Mac OS X 10_15_7) AppleWebKit/537.36 (KHTML, like Gecko) Chrome/135.0.0.0 Safari/537.36" version="26.2.14">
  <diagram name="Page-1" id="aGJbQxwskro8gI8CA3IK">
    <mxGraphModel dx="860" dy="460" grid="1" gridSize="10" guides="1" tooltips="1" connect="1" arrows="1" fold="1" page="1" pageScale="1" pageWidth="850" pageHeight="1100" math="0" shadow="0">
      <root>
        <mxCell id="0" />
        <mxCell id="1" parent="0" />
        <mxCell id="XRB2O4jBTHEuK645xN77-18" value="" style="group" vertex="1" connectable="0" parent="1">
          <mxGeometry x="425" y="100" width="220" height="30" as="geometry" />
        </mxCell>
        <mxCell id="XRB2O4jBTHEuK645xN77-11" value="" style="group" vertex="1" connectable="0" parent="XRB2O4jBTHEuK645xN77-18">
          <mxGeometry width="80" height="30" as="geometry" />
        </mxCell>
        <mxCell id="XRB2O4jBTHEuK645xN77-9" value="" style="shape=process;whiteSpace=wrap;html=1;backgroundOutline=1;" vertex="1" parent="XRB2O4jBTHEuK645xN77-11">
          <mxGeometry width="80" height="30" as="geometry" />
        </mxCell>
        <mxCell id="XRB2O4jBTHEuK645xN77-10" value="16" style="text;html=1;align=center;verticalAlign=middle;whiteSpace=wrap;rounded=0;" vertex="1" parent="XRB2O4jBTHEuK645xN77-11">
          <mxGeometry x="18.181818181818183" width="43.63636363636363" height="30" as="geometry" />
        </mxCell>
        <mxCell id="XRB2O4jBTHEuK645xN77-12" value="" style="group" vertex="1" connectable="0" parent="XRB2O4jBTHEuK645xN77-18">
          <mxGeometry x="70" width="80" height="30" as="geometry" />
        </mxCell>
        <mxCell id="XRB2O4jBTHEuK645xN77-13" value="" style="shape=process;whiteSpace=wrap;html=1;backgroundOutline=1;" vertex="1" parent="XRB2O4jBTHEuK645xN77-12">
          <mxGeometry width="80" height="30" as="geometry" />
        </mxCell>
        <mxCell id="XRB2O4jBTHEuK645xN77-14" value="18" style="text;html=1;align=center;verticalAlign=middle;whiteSpace=wrap;rounded=0;" vertex="1" parent="XRB2O4jBTHEuK645xN77-12">
          <mxGeometry x="18.181818181818183" width="43.63636363636363" height="30" as="geometry" />
        </mxCell>
        <mxCell id="XRB2O4jBTHEuK645xN77-15" value="" style="group" vertex="1" connectable="0" parent="XRB2O4jBTHEuK645xN77-18">
          <mxGeometry x="140" width="80" height="30" as="geometry" />
        </mxCell>
        <mxCell id="XRB2O4jBTHEuK645xN77-16" value="" style="shape=process;whiteSpace=wrap;html=1;backgroundOutline=1;" vertex="1" parent="XRB2O4jBTHEuK645xN77-15">
          <mxGeometry width="80" height="30" as="geometry" />
        </mxCell>
        <mxCell id="XRB2O4jBTHEuK645xN77-26" value="" style="group" vertex="1" connectable="0" parent="1">
          <mxGeometry x="230" y="190" width="70" height="30" as="geometry" />
        </mxCell>
        <mxCell id="XRB2O4jBTHEuK645xN77-53" value="" style="endArrow=classic;html=1;rounded=0;exitX=0.047;exitY=1.005;exitDx=0;exitDy=0;entryX=0.5;entryY=0;entryDx=0;entryDy=0;exitPerimeter=0;" edge="1" parent="1" source="XRB2O4jBTHEuK645xN77-9" target="XRB2O4jBTHEuK645xN77-42">
          <mxGeometry width="50" height="50" relative="1" as="geometry">
            <mxPoint x="320" y="190" as="sourcePoint" />
            <mxPoint x="370" y="140" as="targetPoint" />
          </mxGeometry>
        </mxCell>
        <mxCell id="XRB2O4jBTHEuK645xN77-54" value="" style="endArrow=classic;html=1;rounded=0;exitX=0.046;exitY=1.009;exitDx=0;exitDy=0;exitPerimeter=0;entryX=0.5;entryY=0;entryDx=0;entryDy=0;" edge="1" parent="1" source="XRB2O4jBTHEuK645xN77-13" target="XRB2O4jBTHEuK645xN77-50">
          <mxGeometry width="50" height="50" relative="1" as="geometry">
            <mxPoint x="320" y="180" as="sourcePoint" />
            <mxPoint x="370" y="130" as="targetPoint" />
          </mxGeometry>
        </mxCell>
        <mxCell id="XRB2O4jBTHEuK645xN77-55" value="" style="endArrow=classic;html=1;rounded=0;entryX=0.5;entryY=0;entryDx=0;entryDy=0;exitX=0.045;exitY=1;exitDx=0;exitDy=0;exitPerimeter=0;" edge="1" parent="1" source="XRB2O4jBTHEuK645xN77-16" target="XRB2O4jBTHEuK645xN77-60">
          <mxGeometry width="50" height="50" relative="1" as="geometry">
            <mxPoint x="410" y="150" as="sourcePoint" />
            <mxPoint x="400" y="110" as="targetPoint" />
          </mxGeometry>
        </mxCell>
        <mxCell id="XRB2O4jBTHEuK645xN77-64" value="" style="group" vertex="1" connectable="0" parent="1">
          <mxGeometry x="660" y="170" width="150" height="30" as="geometry" />
        </mxCell>
        <mxCell id="XRB2O4jBTHEuK645xN77-56" value="" style="group" vertex="1" connectable="0" parent="XRB2O4jBTHEuK645xN77-64">
          <mxGeometry width="50" height="30" as="geometry" />
        </mxCell>
        <mxCell id="XRB2O4jBTHEuK645xN77-57" value="" style="rounded=0;whiteSpace=wrap;html=1;" vertex="1" parent="XRB2O4jBTHEuK645xN77-56">
          <mxGeometry width="50" height="30" as="geometry" />
        </mxCell>
        <mxCell id="XRB2O4jBTHEuK645xN77-58" value="18" style="text;html=1;align=center;verticalAlign=middle;whiteSpace=wrap;rounded=0;" vertex="1" parent="XRB2O4jBTHEuK645xN77-56">
          <mxGeometry x="2.5" width="45" height="30" as="geometry" />
        </mxCell>
        <mxCell id="XRB2O4jBTHEuK645xN77-59" value="" style="group" vertex="1" connectable="0" parent="XRB2O4jBTHEuK645xN77-64">
          <mxGeometry x="50" width="50" height="30" as="geometry" />
        </mxCell>
        <mxCell id="XRB2O4jBTHEuK645xN77-60" value="19" style="rounded=0;whiteSpace=wrap;html=1;" vertex="1" parent="XRB2O4jBTHEuK645xN77-59">
          <mxGeometry width="50" height="30" as="geometry" />
        </mxCell>
        <mxCell id="XRB2O4jBTHEuK645xN77-62" value="" style="group" vertex="1" connectable="0" parent="XRB2O4jBTHEuK645xN77-64">
          <mxGeometry x="100" width="50" height="30" as="geometry" />
        </mxCell>
        <mxCell id="XRB2O4jBTHEuK645xN77-63" value="" style="rounded=0;whiteSpace=wrap;html=1;" vertex="1" parent="XRB2O4jBTHEuK645xN77-62">
          <mxGeometry width="50" height="30" as="geometry" />
        </mxCell>
        <mxCell id="XRB2O4jBTHEuK645xN77-82" value="" style="group" vertex="1" connectable="0" parent="1">
          <mxGeometry x="170" y="170" width="150" height="30" as="geometry" />
        </mxCell>
        <mxCell id="XRB2O4jBTHEuK645xN77-74" value="" style="group" vertex="1" connectable="0" parent="XRB2O4jBTHEuK645xN77-82">
          <mxGeometry width="50" height="30" as="geometry" />
        </mxCell>
        <mxCell id="XRB2O4jBTHEuK645xN77-75" value="" style="rounded=0;whiteSpace=wrap;html=1;" vertex="1" parent="XRB2O4jBTHEuK645xN77-74">
          <mxGeometry width="50" height="30" as="geometry" />
        </mxCell>
        <mxCell id="XRB2O4jBTHEuK645xN77-76" value="8" style="text;html=1;align=center;verticalAlign=middle;whiteSpace=wrap;rounded=0;" vertex="1" parent="XRB2O4jBTHEuK645xN77-74">
          <mxGeometry x="2.5" width="45" height="30" as="geometry" />
        </mxCell>
        <mxCell id="XRB2O4jBTHEuK645xN77-77" value="" style="group" vertex="1" connectable="0" parent="XRB2O4jBTHEuK645xN77-82">
          <mxGeometry x="50" width="50" height="30" as="geometry" />
        </mxCell>
        <mxCell id="XRB2O4jBTHEuK645xN77-78" value="" style="rounded=0;whiteSpace=wrap;html=1;" vertex="1" parent="XRB2O4jBTHEuK645xN77-77">
          <mxGeometry width="50" height="30" as="geometry" />
        </mxCell>
        <mxCell id="XRB2O4jBTHEuK645xN77-79" value="11" style="text;html=1;align=center;verticalAlign=middle;whiteSpace=wrap;rounded=0;" vertex="1" parent="XRB2O4jBTHEuK645xN77-77">
          <mxGeometry x="2.5" width="45" height="30" as="geometry" />
        </mxCell>
        <mxCell id="XRB2O4jBTHEuK645xN77-80" value="" style="group" vertex="1" connectable="0" parent="XRB2O4jBTHEuK645xN77-82">
          <mxGeometry x="100" width="50" height="30" as="geometry" />
        </mxCell>
        <mxCell id="XRB2O4jBTHEuK645xN77-81" value="" style="rounded=0;whiteSpace=wrap;html=1;" vertex="1" parent="XRB2O4jBTHEuK645xN77-80">
          <mxGeometry width="50" height="30" as="geometry" />
        </mxCell>
        <mxCell id="XRB2O4jBTHEuK645xN77-83" value="" style="group" vertex="1" connectable="0" parent="1">
          <mxGeometry x="10" y="170" width="150" height="30" as="geometry" />
        </mxCell>
        <mxCell id="XRB2O4jBTHEuK645xN77-31" value="" style="group" vertex="1" connectable="0" parent="XRB2O4jBTHEuK645xN77-83">
          <mxGeometry x="50" width="50" height="30" as="geometry" />
        </mxCell>
        <mxCell id="XRB2O4jBTHEuK645xN77-32" value="" style="rounded=0;whiteSpace=wrap;html=1;" vertex="1" parent="XRB2O4jBTHEuK645xN77-31">
          <mxGeometry width="50" height="30" as="geometry" />
        </mxCell>
        <mxCell id="XRB2O4jBTHEuK645xN77-33" value="6" style="text;html=1;align=center;verticalAlign=middle;whiteSpace=wrap;rounded=0;" vertex="1" parent="XRB2O4jBTHEuK645xN77-31">
          <mxGeometry x="2.5" width="45" height="30" as="geometry" />
        </mxCell>
        <mxCell id="XRB2O4jBTHEuK645xN77-34" value="" style="group" vertex="1" connectable="0" parent="XRB2O4jBTHEuK645xN77-83">
          <mxGeometry x="100" width="50" height="30" as="geometry" />
        </mxCell>
        <mxCell id="XRB2O4jBTHEuK645xN77-35" value="" style="rounded=0;whiteSpace=wrap;html=1;" vertex="1" parent="XRB2O4jBTHEuK645xN77-34">
          <mxGeometry width="50" height="30" as="geometry" />
        </mxCell>
        <mxCell id="XRB2O4jBTHEuK645xN77-30" value="" style="group" vertex="1" connectable="0" parent="XRB2O4jBTHEuK645xN77-83">
          <mxGeometry width="50" height="30" as="geometry" />
        </mxCell>
        <mxCell id="XRB2O4jBTHEuK645xN77-19" value="" style="rounded=0;whiteSpace=wrap;html=1;" vertex="1" parent="XRB2O4jBTHEuK645xN77-30">
          <mxGeometry width="50" height="30" as="geometry" />
        </mxCell>
        <mxCell id="XRB2O4jBTHEuK645xN77-20" value="4" style="text;html=1;align=center;verticalAlign=middle;whiteSpace=wrap;rounded=0;" vertex="1" parent="XRB2O4jBTHEuK645xN77-30">
          <mxGeometry x="2.5" width="45" height="30" as="geometry" />
        </mxCell>
        <mxCell id="XRB2O4jBTHEuK645xN77-84" value="" style="group" vertex="1" connectable="0" parent="1">
          <mxGeometry x="330" y="170" width="150" height="30" as="geometry" />
        </mxCell>
        <mxCell id="XRB2O4jBTHEuK645xN77-37" value="" style="group" vertex="1" connectable="0" parent="XRB2O4jBTHEuK645xN77-84">
          <mxGeometry width="50" height="30" as="geometry" />
        </mxCell>
        <mxCell id="XRB2O4jBTHEuK645xN77-38" value="" style="rounded=0;whiteSpace=wrap;html=1;" vertex="1" parent="XRB2O4jBTHEuK645xN77-37">
          <mxGeometry width="50" height="30" as="geometry" />
        </mxCell>
        <mxCell id="XRB2O4jBTHEuK645xN77-39" value="&lt;b&gt;12&lt;/b&gt;" style="text;html=1;align=center;verticalAlign=middle;whiteSpace=wrap;rounded=0;" vertex="1" parent="XRB2O4jBTHEuK645xN77-37">
          <mxGeometry x="2.5" width="45" height="30" as="geometry" />
        </mxCell>
        <mxCell id="XRB2O4jBTHEuK645xN77-40" value="" style="group" vertex="1" connectable="0" parent="XRB2O4jBTHEuK645xN77-84">
          <mxGeometry x="50" width="50" height="30" as="geometry" />
        </mxCell>
        <mxCell id="XRB2O4jBTHEuK645xN77-41" value="" style="rounded=0;whiteSpace=wrap;html=1;" vertex="1" parent="XRB2O4jBTHEuK645xN77-40">
          <mxGeometry width="50" height="30" as="geometry" />
        </mxCell>
        <mxCell id="XRB2O4jBTHEuK645xN77-42" value="14" style="text;html=1;align=center;verticalAlign=middle;whiteSpace=wrap;rounded=0;" vertex="1" parent="XRB2O4jBTHEuK645xN77-40">
          <mxGeometry x="2.5" width="45" height="30" as="geometry" />
        </mxCell>
        <mxCell id="XRB2O4jBTHEuK645xN77-43" value="" style="group" vertex="1" connectable="0" parent="XRB2O4jBTHEuK645xN77-84">
          <mxGeometry x="100" width="50" height="30" as="geometry" />
        </mxCell>
        <mxCell id="XRB2O4jBTHEuK645xN77-44" value="" style="rounded=0;whiteSpace=wrap;html=1;" vertex="1" parent="XRB2O4jBTHEuK645xN77-43">
          <mxGeometry width="50" height="30" as="geometry" />
        </mxCell>
        <mxCell id="XRB2O4jBTHEuK645xN77-85" value="" style="group" vertex="1" connectable="0" parent="1">
          <mxGeometry x="490" y="170" width="150" height="30" as="geometry" />
        </mxCell>
        <mxCell id="XRB2O4jBTHEuK645xN77-45" value="" style="group" vertex="1" connectable="0" parent="XRB2O4jBTHEuK645xN77-85">
          <mxGeometry width="50" height="30" as="geometry" />
        </mxCell>
        <mxCell id="XRB2O4jBTHEuK645xN77-46" value="" style="rounded=0;whiteSpace=wrap;html=1;" vertex="1" parent="XRB2O4jBTHEuK645xN77-45">
          <mxGeometry width="50" height="30" as="geometry" />
        </mxCell>
        <mxCell id="XRB2O4jBTHEuK645xN77-47" value="16" style="text;html=1;align=center;verticalAlign=middle;whiteSpace=wrap;rounded=0;" vertex="1" parent="XRB2O4jBTHEuK645xN77-45">
          <mxGeometry x="2.5" width="45" height="30" as="geometry" />
        </mxCell>
        <mxCell id="XRB2O4jBTHEuK645xN77-48" value="" style="group" vertex="1" connectable="0" parent="XRB2O4jBTHEuK645xN77-85">
          <mxGeometry x="50" width="50" height="30" as="geometry" />
        </mxCell>
        <mxCell id="XRB2O4jBTHEuK645xN77-49" value="" style="rounded=0;whiteSpace=wrap;html=1;" vertex="1" parent="XRB2O4jBTHEuK645xN77-48">
          <mxGeometry width="50" height="30" as="geometry" />
        </mxCell>
        <mxCell id="XRB2O4jBTHEuK645xN77-50" value="17" style="text;html=1;align=center;verticalAlign=middle;whiteSpace=wrap;rounded=0;" vertex="1" parent="XRB2O4jBTHEuK645xN77-48">
          <mxGeometry x="2.5" width="45" height="30" as="geometry" />
        </mxCell>
        <mxCell id="XRB2O4jBTHEuK645xN77-51" value="" style="group" vertex="1" connectable="0" parent="XRB2O4jBTHEuK645xN77-85">
          <mxGeometry x="100" width="50" height="30" as="geometry" />
        </mxCell>
        <mxCell id="XRB2O4jBTHEuK645xN77-52" value="" style="rounded=0;whiteSpace=wrap;html=1;" vertex="1" parent="XRB2O4jBTHEuK645xN77-51">
          <mxGeometry width="50" height="30" as="geometry" />
        </mxCell>
        <mxCell id="XRB2O4jBTHEuK645xN77-86" value="" style="group" vertex="1" connectable="0" parent="1">
          <mxGeometry x="110" y="100" width="220" height="30" as="geometry" />
        </mxCell>
        <mxCell id="XRB2O4jBTHEuK645xN77-87" value="" style="group" vertex="1" connectable="0" parent="XRB2O4jBTHEuK645xN77-86">
          <mxGeometry width="80" height="30" as="geometry" />
        </mxCell>
        <mxCell id="XRB2O4jBTHEuK645xN77-88" value="" style="shape=process;whiteSpace=wrap;html=1;backgroundOutline=1;" vertex="1" parent="XRB2O4jBTHEuK645xN77-87">
          <mxGeometry width="80" height="30" as="geometry" />
        </mxCell>
        <mxCell id="XRB2O4jBTHEuK645xN77-89" value="8" style="text;html=1;align=center;verticalAlign=middle;whiteSpace=wrap;rounded=0;" vertex="1" parent="XRB2O4jBTHEuK645xN77-87">
          <mxGeometry x="18.181818181818183" width="43.63636363636363" height="30" as="geometry" />
        </mxCell>
        <mxCell id="XRB2O4jBTHEuK645xN77-90" value="" style="group" vertex="1" connectable="0" parent="XRB2O4jBTHEuK645xN77-86">
          <mxGeometry x="70" width="80" height="30" as="geometry" />
        </mxCell>
        <mxCell id="XRB2O4jBTHEuK645xN77-91" value="" style="shape=process;whiteSpace=wrap;html=1;backgroundOutline=1;" vertex="1" parent="XRB2O4jBTHEuK645xN77-90">
          <mxGeometry width="80" height="30" as="geometry" />
        </mxCell>
        <mxCell id="XRB2O4jBTHEuK645xN77-92" value="&lt;b&gt;12&lt;/b&gt;" style="text;html=1;align=center;verticalAlign=middle;whiteSpace=wrap;rounded=0;" vertex="1" parent="XRB2O4jBTHEuK645xN77-90">
          <mxGeometry x="18.181818181818183" width="43.63636363636363" height="30" as="geometry" />
        </mxCell>
        <mxCell id="XRB2O4jBTHEuK645xN77-93" value="" style="group" vertex="1" connectable="0" parent="XRB2O4jBTHEuK645xN77-86">
          <mxGeometry x="140" width="80" height="30" as="geometry" />
        </mxCell>
        <mxCell id="XRB2O4jBTHEuK645xN77-94" value="" style="shape=process;whiteSpace=wrap;html=1;backgroundOutline=1;" vertex="1" parent="XRB2O4jBTHEuK645xN77-93">
          <mxGeometry width="80" height="30" as="geometry" />
        </mxCell>
        <mxCell id="XRB2O4jBTHEuK645xN77-95" value="" style="group" vertex="1" connectable="0" parent="1">
          <mxGeometry x="270" y="40" width="220" height="30" as="geometry" />
        </mxCell>
        <mxCell id="XRB2O4jBTHEuK645xN77-96" value="" style="group" vertex="1" connectable="0" parent="XRB2O4jBTHEuK645xN77-95">
          <mxGeometry width="80" height="30" as="geometry" />
        </mxCell>
        <mxCell id="XRB2O4jBTHEuK645xN77-97" value="" style="shape=process;whiteSpace=wrap;html=1;backgroundOutline=1;" vertex="1" parent="XRB2O4jBTHEuK645xN77-96">
          <mxGeometry width="80" height="30" as="geometry" />
        </mxCell>
        <mxCell id="XRB2O4jBTHEuK645xN77-98" value="16" style="text;html=1;align=center;verticalAlign=middle;whiteSpace=wrap;rounded=0;" vertex="1" parent="XRB2O4jBTHEuK645xN77-96">
          <mxGeometry x="18.181818181818183" width="43.63636363636363" height="30" as="geometry" />
        </mxCell>
        <mxCell id="XRB2O4jBTHEuK645xN77-99" value="" style="group" vertex="1" connectable="0" parent="XRB2O4jBTHEuK645xN77-95">
          <mxGeometry x="70" width="80" height="30" as="geometry" />
        </mxCell>
        <mxCell id="XRB2O4jBTHEuK645xN77-100" value="" style="shape=process;whiteSpace=wrap;html=1;backgroundOutline=1;" vertex="1" parent="XRB2O4jBTHEuK645xN77-99">
          <mxGeometry width="80" height="30" as="geometry" />
        </mxCell>
        <mxCell id="XRB2O4jBTHEuK645xN77-102" value="" style="group" vertex="1" connectable="0" parent="XRB2O4jBTHEuK645xN77-95">
          <mxGeometry x="140" width="80" height="30" as="geometry" />
        </mxCell>
        <mxCell id="XRB2O4jBTHEuK645xN77-103" value="" style="shape=process;whiteSpace=wrap;html=1;backgroundOutline=1;" vertex="1" parent="XRB2O4jBTHEuK645xN77-102">
          <mxGeometry width="80" height="30" as="geometry" />
        </mxCell>
        <mxCell id="XRB2O4jBTHEuK645xN77-105" value="" style="endArrow=classic;html=1;rounded=0;exitX=0.052;exitY=0.996;exitDx=0;exitDy=0;entryX=0.5;entryY=0;entryDx=0;entryDy=0;exitPerimeter=0;" edge="1" parent="1" source="XRB2O4jBTHEuK645xN77-91" target="XRB2O4jBTHEuK645xN77-79">
          <mxGeometry width="50" height="50" relative="1" as="geometry">
            <mxPoint x="320" y="180" as="sourcePoint" />
            <mxPoint x="370" y="130" as="targetPoint" />
          </mxGeometry>
        </mxCell>
        <mxCell id="XRB2O4jBTHEuK645xN77-106" value="" style="endArrow=classic;html=1;rounded=0;exitX=0.045;exitY=0.996;exitDx=0;exitDy=0;exitPerimeter=0;entryX=0.5;entryY=0;entryDx=0;entryDy=0;" edge="1" parent="1" source="XRB2O4jBTHEuK645xN77-88" target="XRB2O4jBTHEuK645xN77-33">
          <mxGeometry width="50" height="50" relative="1" as="geometry">
            <mxPoint x="150" y="170" as="sourcePoint" />
            <mxPoint x="200" y="120" as="targetPoint" />
          </mxGeometry>
        </mxCell>
        <mxCell id="XRB2O4jBTHEuK645xN77-107" value="" style="endArrow=classic;html=1;rounded=0;entryX=0;entryY=0.5;entryDx=0;entryDy=0;exitX=0;exitY=0.5;exitDx=0;exitDy=0;" edge="1" parent="1" source="XRB2O4jBTHEuK645xN77-94" target="XRB2O4jBTHEuK645xN77-9">
          <mxGeometry width="50" height="50" relative="1" as="geometry">
            <mxPoint x="260" y="115" as="sourcePoint" />
            <mxPoint x="430" y="120" as="targetPoint" />
          </mxGeometry>
        </mxCell>
        <mxCell id="XRB2O4jBTHEuK645xN77-108" value="" style="endArrow=classic;html=1;rounded=0;exitX=0.054;exitY=1.002;exitDx=0;exitDy=0;exitPerimeter=0;entryX=0.5;entryY=0;entryDx=0;entryDy=0;" edge="1" parent="1" source="XRB2O4jBTHEuK645xN77-97" target="XRB2O4jBTHEuK645xN77-91">
          <mxGeometry width="50" height="50" relative="1" as="geometry">
            <mxPoint x="280" y="140" as="sourcePoint" />
            <mxPoint x="330" y="90" as="targetPoint" />
          </mxGeometry>
        </mxCell>
        <mxCell id="XRB2O4jBTHEuK645xN77-109" value="" style="endArrow=classic;html=1;rounded=0;exitX=0.048;exitY=1.002;exitDx=0;exitDy=0;exitPerimeter=0;entryX=0.5;entryY=0;entryDx=0;entryDy=0;" edge="1" parent="1" source="XRB2O4jBTHEuK645xN77-100" target="XRB2O4jBTHEuK645xN77-13">
          <mxGeometry width="50" height="50" relative="1" as="geometry">
            <mxPoint x="420" y="130" as="sourcePoint" />
            <mxPoint x="470" y="80" as="targetPoint" />
          </mxGeometry>
        </mxCell>
      </root>
    </mxGraphModel>
  </diagram>
</mxfile>
